<?xml version="1.0" encoding="UTF-8" standalone="no"?>
<!-- Created with Inkscape (http://www.inkscape.org/) -->

<svg
   width="2453"
   height="2453"
   viewBox="0 0 649.02292 649.02291"
   version="1.1"
   id="svg5"
   xml:space="preserve"
   inkscape:version="1.2 (dc2aedaf03, 2022-05-15)"
   sodipodi:docname="commander-logo.svg"
   xmlns:inkscape="http://www.inkscape.org/namespaces/inkscape"
   xmlns:sodipodi="http://sodipodi.sourceforge.net/DTD/sodipodi-0.dtd"
   xmlns="http://www.w3.org/2000/svg"
   xmlns:svg="http://www.w3.org/2000/svg"><sodipodi:namedview
     id="namedview7"
     pagecolor="#505050"
     bordercolor="#ffffff"
     borderopacity="1"
     inkscape:showpageshadow="0"
     inkscape:pageopacity="0"
     inkscape:pagecheckerboard="1"
     inkscape:deskcolor="#505050"
     inkscape:document-units="px"
     showgrid="false"
     inkscape:zoom="0.26110523"
     inkscape:cx="507.45824"
     inkscape:cy="1336.6258"
     inkscape:window-width="1920"
     inkscape:window-height="1009"
     inkscape:window-x="-8"
     inkscape:window-y="-8"
     inkscape:window-maximized="1"
     inkscape:current-layer="layer1" /><defs
     id="defs2" /><g
     inkscape:label="Camada 1"
     inkscape:groupmode="layer"
     id="layer1"><path
       style="fill:#000000;stroke-width:0.987492"
       d="m 28.26399,573.03441 v -71.9181 l 5.113658,-2.39065 5.113658,-2.39066 2.292528,-1.79978 2.292529,-1.79978 V 348.16235 203.58926 l 2.221856,-1.4527 2.221856,-1.45269 72.580625,-34.71128 72.58063,-34.71128 1.23437,-1.01064 1.23436,-1.01064 V 101.33834 73.436659 l 1.23437,-0.993961 1.23436,-0.993961 63.44633,-33.695541 63.44633,-33.6955424 63.44634,33.6955424 63.44633,33.695541 1.23436,0.993961 1.23437,0.993961 v 27.901681 27.90169 l 1.2409,1.02985 1.2409,1.02986 72.57409,34.6961 72.57409,34.6961 2.22186,1.44866 2.22186,1.44866 v 144.57309 144.57309 l 2.29253,1.79978 2.29253,1.79978 5.11365,2.39066 5.11366,2.39065 v 71.9181 71.91809 H 324.51145 28.26399 Z"
       id="path199" /><path
       style="display:inline;fill:#aa8800;stroke-width:0.987492"
       d="m 60.061218,613.15527 -1.18499,-1.18499 v -45.59996 -45.59994 l 1.234364,-0.98088 1.234365,-0.98086 131.583253,-69.86411 131.58324,-69.86411 131.58325,69.84199 131.58325,69.842 1.23437,1.56456 1.23436,1.56455 v 45.03838 45.03838 l -1.18499,1.18499 -1.18499,1.18499 H 324.51145 61.246208 Z M 74.346929,460.62072 73.688601,459.9624 V 341.65075 223.3391 l 2.382451,-1.56105 2.382451,-1.56104 54.529327,-26.11149 54.52932,-26.11149 h 1.35418 1.35417 l -0.25082,119.69953 -0.25082,119.69953 -56.23554,26.94298 -56.235547,26.94298 H 76.126515 75.005256 Z M 515.09732,434.23649 459.30405,407.35208 459.05323,287.67305 458.80241,167.99403 h 1.34468 1.34469 l 55.41859,26.52356 55.41858,26.52357 1.50664,1.25041 1.50666,1.25041 -0.25084,118.62166 -0.25085,118.62166 -1.97498,0.16781 -1.97498,0.1678 z M 226.38588,387.5116 225.7623,386.88802 V 239.54351 92.199 l 1.23436,-1.012036 1.23437,-1.012036 47.63634,-25.277406 47.63636,-25.277405 h 0.99364 0.99366 l 47.65042,25.278951 47.65043,25.278951 1.23437,1.010491 1.23436,1.01049 v 147.45081 147.45081 l -0.79465,0.49112 -0.79466,0.49113 -48.58456,-25.7234 -48.58456,-25.72339 -47.14808,24.93592 -47.14809,24.93592 -1.59827,0.81363 -1.59827,0.81363 z"
       id="path179" /></g></svg>
